<mxfile host="app.diagrams.net" modified="2022-09-16T14:39:24.016Z" agent="5.0 (Windows NT 10.0; Win64; x64) AppleWebKit/537.36 (KHTML, like Gecko) Chrome/105.0.0.0 Safari/537.36" etag="1fhuH5bWU7TN_EsNNuDJ" version="20.3.0" type="gitlab">
  <diagram id="C5RBs43oDa-KdzZeNtuy" name="Page-1">
    <mxGraphModel dx="1662" dy="775" grid="1" gridSize="10" guides="1" tooltips="1" connect="1" arrows="1" fold="1" page="1" pageScale="1" pageWidth="827" pageHeight="1169" math="0" shadow="0">
      <root>
        <mxCell id="WIyWlLk6GJQsqaUBKTNV-0" />
        <mxCell id="WIyWlLk6GJQsqaUBKTNV-1" parent="WIyWlLk6GJQsqaUBKTNV-0" />
        <mxCell id="AyQKdj8EUcUTwyNVggYh-0" value="function" style="swimlane;fontStyle=0;childLayout=stackLayout;horizontal=1;startSize=26;fillColor=none;horizontalStack=0;resizeParent=1;resizeParentMax=0;resizeLast=0;collapsible=1;marginBottom=0;" parent="WIyWlLk6GJQsqaUBKTNV-1" vertex="1">
          <mxGeometry x="2807" y="550" width="200" height="186" as="geometry" />
        </mxCell>
        <mxCell id="AyQKdj8EUcUTwyNVggYh-1" value="- name: string" style="text;strokeColor=none;fillColor=none;align=left;verticalAlign=top;spacingLeft=4;spacingRight=4;overflow=hidden;rotatable=0;points=[[0,0.5],[1,0.5]];portConstraint=eastwest;" parent="AyQKdj8EUcUTwyNVggYh-0" vertex="1">
          <mxGeometry y="26" width="200" height="26" as="geometry" />
        </mxCell>
        <mxCell id="AyQKdj8EUcUTwyNVggYh-2" value="- returnType: Type" style="text;strokeColor=none;fillColor=none;align=left;verticalAlign=top;spacingLeft=4;spacingRight=4;overflow=hidden;rotatable=0;points=[[0,0.5],[1,0.5]];portConstraint=eastwest;" parent="AyQKdj8EUcUTwyNVggYh-0" vertex="1">
          <mxGeometry y="52" width="200" height="26" as="geometry" />
        </mxCell>
        <mxCell id="AyQKdj8EUcUTwyNVggYh-3" value="- params  : vector&lt;Var&gt;" style="text;strokeColor=none;fillColor=none;align=left;verticalAlign=top;spacingLeft=4;spacingRight=4;overflow=hidden;rotatable=0;points=[[0,0.5],[1,0.5]];portConstraint=eastwest;" parent="AyQKdj8EUcUTwyNVggYh-0" vertex="1">
          <mxGeometry y="78" width="200" height="26" as="geometry" />
        </mxCell>
        <mxCell id="AyQKdj8EUcUTwyNVggYh-5" value="- vars: vector&lt;Var&gt;" style="text;strokeColor=none;fillColor=none;align=left;verticalAlign=top;spacingLeft=4;spacingRight=4;overflow=hidden;rotatable=0;points=[[0,0.5],[1,0.5]];portConstraint=eastwest;" parent="AyQKdj8EUcUTwyNVggYh-0" vertex="1">
          <mxGeometry y="104" width="200" height="26" as="geometry" />
        </mxCell>
        <mxCell id="AyQKdj8EUcUTwyNVggYh-6" value="- commands: vector&lt;ICommand*&gt;" style="text;strokeColor=none;fillColor=none;align=left;verticalAlign=top;spacingLeft=4;spacingRight=4;overflow=hidden;rotatable=0;points=[[0,0.5],[1,0.5]];portConstraint=eastwest;" parent="AyQKdj8EUcUTwyNVggYh-0" vertex="1">
          <mxGeometry y="130" width="200" height="30" as="geometry" />
        </mxCell>
        <mxCell id="E0N1HT8yoOOlsYQQrYLZ-3" value="+ getAsm() : string" style="text;strokeColor=none;fillColor=none;align=left;verticalAlign=top;spacingLeft=4;spacingRight=4;overflow=hidden;rotatable=0;points=[[0,0.5],[1,0.5]];portConstraint=eastwest;" vertex="1" parent="AyQKdj8EUcUTwyNVggYh-0">
          <mxGeometry y="160" width="200" height="26" as="geometry" />
        </mxCell>
        <mxCell id="AyQKdj8EUcUTwyNVggYh-4" value="&lt;p style=&quot;margin:0px;margin-top:4px;text-align:center;&quot;&gt;&lt;br&gt;&lt;b&gt;enum&lt;/b&gt;&lt;/p&gt;&lt;p style=&quot;margin:0px;margin-top:4px;text-align:center;&quot;&gt;OperationType&lt;/p&gt;" style="verticalAlign=top;align=left;overflow=fill;fontSize=12;fontFamily=Helvetica;html=1;" parent="WIyWlLk6GJQsqaUBKTNV-1" vertex="1">
          <mxGeometry x="1584" y="120" width="140" height="60" as="geometry" />
        </mxCell>
        <mxCell id="AyQKdj8EUcUTwyNVggYh-8" value="Var" style="swimlane;fontStyle=1;align=center;verticalAlign=top;childLayout=stackLayout;horizontal=1;startSize=26;horizontalStack=0;resizeParent=1;resizeParentMax=0;resizeLast=0;collapsible=1;marginBottom=0;" parent="WIyWlLk6GJQsqaUBKTNV-1" vertex="1">
          <mxGeometry x="1180" y="120" width="160" height="86" as="geometry" />
        </mxCell>
        <mxCell id="AyQKdj8EUcUTwyNVggYh-9" value="+ name : string" style="text;strokeColor=none;fillColor=none;align=left;verticalAlign=top;spacingLeft=4;spacingRight=4;overflow=hidden;rotatable=0;points=[[0,0.5],[1,0.5]];portConstraint=eastwest;" parent="AyQKdj8EUcUTwyNVggYh-8" vertex="1">
          <mxGeometry y="26" width="160" height="26" as="geometry" />
        </mxCell>
        <mxCell id="AyQKdj8EUcUTwyNVggYh-10" value="" style="line;strokeWidth=1;fillColor=none;align=left;verticalAlign=middle;spacingTop=-1;spacingLeft=3;spacingRight=3;rotatable=0;labelPosition=right;points=[];portConstraint=eastwest;" parent="AyQKdj8EUcUTwyNVggYh-8" vertex="1">
          <mxGeometry y="52" width="160" height="8" as="geometry" />
        </mxCell>
        <mxCell id="AyQKdj8EUcUTwyNVggYh-11" value="+ type: Type" style="text;strokeColor=none;fillColor=none;align=left;verticalAlign=top;spacingLeft=4;spacingRight=4;overflow=hidden;rotatable=0;points=[[0,0.5],[1,0.5]];portConstraint=eastwest;" parent="AyQKdj8EUcUTwyNVggYh-8" vertex="1">
          <mxGeometry y="60" width="160" height="26" as="geometry" />
        </mxCell>
        <mxCell id="AyQKdj8EUcUTwyNVggYh-12" value="&lt;p style=&quot;margin:0px;margin-top:4px;text-align:center;&quot;&gt;&lt;i&gt;&amp;lt;&amp;lt;Interface&amp;gt;&amp;gt;&lt;/i&gt;&lt;br&gt;&lt;b&gt;ICommand&lt;/b&gt;&lt;/p&gt;&lt;hr size=&quot;1&quot;&gt;&lt;p style=&quot;margin:0px;margin-left:4px;&quot;&gt;+ getAsm() : string&lt;/p&gt;" style="verticalAlign=top;align=left;overflow=fill;fontSize=12;fontFamily=Helvetica;html=1;" parent="WIyWlLk6GJQsqaUBKTNV-1" vertex="1">
          <mxGeometry x="1367" y="128" width="190" height="70" as="geometry" />
        </mxCell>
        <mxCell id="9dWKjCrfehL0n8Pibzqj-0" value="while" style="swimlane;fontStyle=0;childLayout=stackLayout;horizontal=1;startSize=26;fillColor=none;horizontalStack=0;resizeParent=1;resizeParentMax=0;resizeLast=0;collapsible=1;marginBottom=0;" parent="WIyWlLk6GJQsqaUBKTNV-1" vertex="1">
          <mxGeometry x="2507" y="550" width="270" height="104" as="geometry" />
        </mxCell>
        <mxCell id="9dWKjCrfehL0n8Pibzqj-1" value="- condition :  vector&lt;ICommand*&gt;&#xa;" style="text;strokeColor=none;fillColor=none;align=left;verticalAlign=top;spacingLeft=4;spacingRight=4;overflow=hidden;rotatable=0;points=[[0,0.5],[1,0.5]];portConstraint=eastwest;" parent="9dWKjCrfehL0n8Pibzqj-0" vertex="1">
          <mxGeometry y="26" width="270" height="26" as="geometry" />
        </mxCell>
        <mxCell id="9dWKjCrfehL0n8Pibzqj-3" value="- scope : vector&lt;ICommand&gt;" style="text;strokeColor=none;fillColor=none;align=left;verticalAlign=top;spacingLeft=4;spacingRight=4;overflow=hidden;rotatable=0;points=[[0,0.5],[1,0.5]];portConstraint=eastwest;" parent="9dWKjCrfehL0n8Pibzqj-0" vertex="1">
          <mxGeometry y="52" width="270" height="26" as="geometry" />
        </mxCell>
        <mxCell id="E0N1HT8yoOOlsYQQrYLZ-4" value="+ getAsm() : string" style="text;strokeColor=none;fillColor=none;align=left;verticalAlign=top;spacingLeft=4;spacingRight=4;overflow=hidden;rotatable=0;points=[[0,0.5],[1,0.5]];portConstraint=eastwest;" vertex="1" parent="9dWKjCrfehL0n8Pibzqj-0">
          <mxGeometry y="78" width="270" height="26" as="geometry" />
        </mxCell>
        <mxCell id="E0N1HT8yoOOlsYQQrYLZ-6" value="if" style="swimlane;fontStyle=0;childLayout=stackLayout;horizontal=1;startSize=26;fillColor=none;horizontalStack=0;resizeParent=1;resizeParentMax=0;resizeLast=0;collapsible=1;marginBottom=0;" vertex="1" parent="WIyWlLk6GJQsqaUBKTNV-1">
          <mxGeometry x="2204" y="550" width="270" height="130" as="geometry" />
        </mxCell>
        <mxCell id="E0N1HT8yoOOlsYQQrYLZ-7" value="- condition :  vector&lt;ICommand*&gt;&#xa;" style="text;strokeColor=none;fillColor=none;align=left;verticalAlign=top;spacingLeft=4;spacingRight=4;overflow=hidden;rotatable=0;points=[[0,0.5],[1,0.5]];portConstraint=eastwest;" vertex="1" parent="E0N1HT8yoOOlsYQQrYLZ-6">
          <mxGeometry y="26" width="270" height="26" as="geometry" />
        </mxCell>
        <mxCell id="E0N1HT8yoOOlsYQQrYLZ-9" value="- scope : vector&lt;ICommand&gt;" style="text;strokeColor=none;fillColor=none;align=left;verticalAlign=top;spacingLeft=4;spacingRight=4;overflow=hidden;rotatable=0;points=[[0,0.5],[1,0.5]];portConstraint=eastwest;" vertex="1" parent="E0N1HT8yoOOlsYQQrYLZ-6">
          <mxGeometry y="52" width="270" height="26" as="geometry" />
        </mxCell>
        <mxCell id="E0N1HT8yoOOlsYQQrYLZ-61" value="- elseif : if" style="text;strokeColor=none;fillColor=none;align=left;verticalAlign=top;spacingLeft=4;spacingRight=4;overflow=hidden;rotatable=0;points=[[0,0.5],[1,0.5]];portConstraint=eastwest;" vertex="1" parent="E0N1HT8yoOOlsYQQrYLZ-6">
          <mxGeometry y="78" width="270" height="26" as="geometry" />
        </mxCell>
        <mxCell id="E0N1HT8yoOOlsYQQrYLZ-10" value="+ getAsm() : string" style="text;strokeColor=none;fillColor=none;align=left;verticalAlign=top;spacingLeft=4;spacingRight=4;overflow=hidden;rotatable=0;points=[[0,0.5],[1,0.5]];portConstraint=eastwest;" vertex="1" parent="E0N1HT8yoOOlsYQQrYLZ-6">
          <mxGeometry y="104" width="270" height="26" as="geometry" />
        </mxCell>
        <mxCell id="E0N1HT8yoOOlsYQQrYLZ-12" value="raw" style="swimlane;fontStyle=0;childLayout=stackLayout;horizontal=1;startSize=26;fillColor=none;horizontalStack=0;resizeParent=1;resizeParentMax=0;resizeLast=0;collapsible=1;marginBottom=0;" vertex="1" parent="WIyWlLk6GJQsqaUBKTNV-1">
          <mxGeometry x="1907" y="550" width="270" height="78" as="geometry" />
        </mxCell>
        <mxCell id="E0N1HT8yoOOlsYQQrYLZ-15" value="- code : string" style="text;strokeColor=none;fillColor=none;align=left;verticalAlign=top;spacingLeft=4;spacingRight=4;overflow=hidden;rotatable=0;points=[[0,0.5],[1,0.5]];portConstraint=eastwest;" vertex="1" parent="E0N1HT8yoOOlsYQQrYLZ-12">
          <mxGeometry y="26" width="270" height="26" as="geometry" />
        </mxCell>
        <mxCell id="E0N1HT8yoOOlsYQQrYLZ-16" value="+ getAsm() : string" style="text;strokeColor=none;fillColor=none;align=left;verticalAlign=top;spacingLeft=4;spacingRight=4;overflow=hidden;rotatable=0;points=[[0,0.5],[1,0.5]];portConstraint=eastwest;" vertex="1" parent="E0N1HT8yoOOlsYQQrYLZ-12">
          <mxGeometry y="52" width="270" height="26" as="geometry" />
        </mxCell>
        <mxCell id="E0N1HT8yoOOlsYQQrYLZ-17" value="operator=" style="swimlane;fontStyle=0;childLayout=stackLayout;horizontal=1;startSize=26;fillColor=none;horizontalStack=0;resizeParent=1;resizeParentMax=0;resizeLast=0;collapsible=1;marginBottom=0;" vertex="1" parent="WIyWlLk6GJQsqaUBKTNV-1">
          <mxGeometry x="1607" y="550" width="270" height="104" as="geometry" />
        </mxCell>
        <mxCell id="E0N1HT8yoOOlsYQQrYLZ-18" value="- name : string" style="text;strokeColor=none;fillColor=none;align=left;verticalAlign=top;spacingLeft=4;spacingRight=4;overflow=hidden;rotatable=0;points=[[0,0.5],[1,0.5]];portConstraint=eastwest;" vertex="1" parent="E0N1HT8yoOOlsYQQrYLZ-17">
          <mxGeometry y="26" width="270" height="26" as="geometry" />
        </mxCell>
        <mxCell id="E0N1HT8yoOOlsYQQrYLZ-19" value="- value : ICommand*" style="text;strokeColor=none;fillColor=none;align=left;verticalAlign=top;spacingLeft=4;spacingRight=4;overflow=hidden;rotatable=0;points=[[0,0.5],[1,0.5]];portConstraint=eastwest;" vertex="1" parent="E0N1HT8yoOOlsYQQrYLZ-17">
          <mxGeometry y="52" width="270" height="26" as="geometry" />
        </mxCell>
        <mxCell id="E0N1HT8yoOOlsYQQrYLZ-21" value="+ getAsm() : string" style="text;strokeColor=none;fillColor=none;align=left;verticalAlign=top;spacingLeft=4;spacingRight=4;overflow=hidden;rotatable=0;points=[[0,0.5],[1,0.5]];portConstraint=eastwest;" vertex="1" parent="E0N1HT8yoOOlsYQQrYLZ-17">
          <mxGeometry y="78" width="270" height="26" as="geometry" />
        </mxCell>
        <mxCell id="E0N1HT8yoOOlsYQQrYLZ-22" value="mathOperation" style="swimlane;fontStyle=0;childLayout=stackLayout;horizontal=1;startSize=26;fillColor=none;horizontalStack=0;resizeParent=1;resizeParentMax=0;resizeLast=0;collapsible=1;marginBottom=0;" vertex="1" parent="WIyWlLk6GJQsqaUBKTNV-1">
          <mxGeometry x="1307" y="550" width="270" height="130" as="geometry" />
        </mxCell>
        <mxCell id="E0N1HT8yoOOlsYQQrYLZ-24" value="- value1 : mathOperation" style="text;strokeColor=none;fillColor=none;align=left;verticalAlign=top;spacingLeft=4;spacingRight=4;overflow=hidden;rotatable=0;points=[[0,0.5],[1,0.5]];portConstraint=eastwest;" vertex="1" parent="E0N1HT8yoOOlsYQQrYLZ-22">
          <mxGeometry y="26" width="270" height="26" as="geometry" />
        </mxCell>
        <mxCell id="E0N1HT8yoOOlsYQQrYLZ-27" value="- value2 : mathOperation" style="text;strokeColor=none;fillColor=none;align=left;verticalAlign=top;spacingLeft=4;spacingRight=4;overflow=hidden;rotatable=0;points=[[0,0.5],[1,0.5]];portConstraint=eastwest;" vertex="1" parent="E0N1HT8yoOOlsYQQrYLZ-22">
          <mxGeometry y="52" width="270" height="26" as="geometry" />
        </mxCell>
        <mxCell id="E0N1HT8yoOOlsYQQrYLZ-28" value="- operationType : OperationType" style="text;strokeColor=none;fillColor=none;align=left;verticalAlign=top;spacingLeft=4;spacingRight=4;overflow=hidden;rotatable=0;points=[[0,0.5],[1,0.5]];portConstraint=eastwest;" vertex="1" parent="E0N1HT8yoOOlsYQQrYLZ-22">
          <mxGeometry y="78" width="270" height="26" as="geometry" />
        </mxCell>
        <mxCell id="E0N1HT8yoOOlsYQQrYLZ-26" value="+ getAsm() : string" style="text;strokeColor=none;fillColor=none;align=left;verticalAlign=top;spacingLeft=4;spacingRight=4;overflow=hidden;rotatable=0;points=[[0,0.5],[1,0.5]];portConstraint=eastwest;" vertex="1" parent="E0N1HT8yoOOlsYQQrYLZ-22">
          <mxGeometry y="104" width="270" height="26" as="geometry" />
        </mxCell>
        <mxCell id="E0N1HT8yoOOlsYQQrYLZ-29" value="&lt;p style=&quot;margin:0px;margin-top:4px;text-align:center;&quot;&gt;&lt;br&gt;&lt;b&gt;enum&lt;/b&gt;&lt;/p&gt;&lt;p style=&quot;margin:0px;margin-top:4px;text-align:center;&quot;&gt;Type&lt;/p&gt;" style="verticalAlign=top;align=left;overflow=fill;fontSize=12;fontFamily=Helvetica;html=1;" vertex="1" parent="WIyWlLk6GJQsqaUBKTNV-1">
          <mxGeometry x="1724" y="120" width="140" height="60" as="geometry" />
        </mxCell>
        <mxCell id="E0N1HT8yoOOlsYQQrYLZ-30" value="inputSyscall" style="swimlane;fontStyle=0;childLayout=stackLayout;horizontal=1;startSize=26;fillColor=none;horizontalStack=0;resizeParent=1;resizeParentMax=0;resizeLast=0;collapsible=1;marginBottom=0;" vertex="1" parent="WIyWlLk6GJQsqaUBKTNV-1">
          <mxGeometry x="1007" y="550" width="270" height="104" as="geometry" />
        </mxCell>
        <mxCell id="E0N1HT8yoOOlsYQQrYLZ-31" value="- syscallType : intType" style="text;strokeColor=none;fillColor=none;align=left;verticalAlign=top;spacingLeft=4;spacingRight=4;overflow=hidden;rotatable=0;points=[[0,0.5],[1,0.5]];portConstraint=eastwest;" vertex="1" parent="E0N1HT8yoOOlsYQQrYLZ-30">
          <mxGeometry y="26" width="270" height="26" as="geometry" />
        </mxCell>
        <mxCell id="E0N1HT8yoOOlsYQQrYLZ-40" value="- input : Var" style="text;strokeColor=none;fillColor=none;align=left;verticalAlign=top;spacingLeft=4;spacingRight=4;overflow=hidden;rotatable=0;points=[[0,0.5],[1,0.5]];portConstraint=eastwest;" vertex="1" parent="E0N1HT8yoOOlsYQQrYLZ-30">
          <mxGeometry y="52" width="270" height="26" as="geometry" />
        </mxCell>
        <mxCell id="E0N1HT8yoOOlsYQQrYLZ-34" value="+ getAsm() : string" style="text;strokeColor=none;fillColor=none;align=left;verticalAlign=top;spacingLeft=4;spacingRight=4;overflow=hidden;rotatable=0;points=[[0,0.5],[1,0.5]];portConstraint=eastwest;" vertex="1" parent="E0N1HT8yoOOlsYQQrYLZ-30">
          <mxGeometry y="78" width="270" height="26" as="geometry" />
        </mxCell>
        <mxCell id="E0N1HT8yoOOlsYQQrYLZ-41" value="syscall" style="swimlane;fontStyle=0;childLayout=stackLayout;horizontal=1;startSize=26;fillColor=none;horizontalStack=0;resizeParent=1;resizeParentMax=0;resizeLast=0;collapsible=1;marginBottom=0;" vertex="1" parent="WIyWlLk6GJQsqaUBKTNV-1">
          <mxGeometry x="710" y="550" width="270" height="78" as="geometry" />
        </mxCell>
        <mxCell id="E0N1HT8yoOOlsYQQrYLZ-43" value="- syscallType : intType" style="text;strokeColor=none;fillColor=none;align=left;verticalAlign=top;spacingLeft=4;spacingRight=4;overflow=hidden;rotatable=0;points=[[0,0.5],[1,0.5]];portConstraint=eastwest;" vertex="1" parent="E0N1HT8yoOOlsYQQrYLZ-41">
          <mxGeometry y="26" width="270" height="26" as="geometry" />
        </mxCell>
        <mxCell id="E0N1HT8yoOOlsYQQrYLZ-45" value="+ getAsm() : string" style="text;strokeColor=none;fillColor=none;align=left;verticalAlign=top;spacingLeft=4;spacingRight=4;overflow=hidden;rotatable=0;points=[[0,0.5],[1,0.5]];portConstraint=eastwest;" vertex="1" parent="E0N1HT8yoOOlsYQQrYLZ-41">
          <mxGeometry y="52" width="270" height="26" as="geometry" />
        </mxCell>
        <mxCell id="E0N1HT8yoOOlsYQQrYLZ-46" value="&lt;p style=&quot;margin:0px;margin-top:4px;text-align:center;&quot;&gt;&lt;br&gt;&lt;b&gt;enum&lt;/b&gt;&lt;/p&gt;&lt;p style=&quot;margin:0px;margin-top:4px;text-align:center;&quot;&gt;intType&lt;/p&gt;" style="verticalAlign=top;align=left;overflow=fill;fontSize=12;fontFamily=Helvetica;html=1;" vertex="1" parent="WIyWlLk6GJQsqaUBKTNV-1">
          <mxGeometry x="1864" y="120" width="140" height="60" as="geometry" />
        </mxCell>
        <mxCell id="E0N1HT8yoOOlsYQQrYLZ-62" value="cast" style="swimlane;fontStyle=0;childLayout=stackLayout;horizontal=1;startSize=26;fillColor=none;horizontalStack=0;resizeParent=1;resizeParentMax=0;resizeLast=0;collapsible=1;marginBottom=0;" vertex="1" parent="WIyWlLk6GJQsqaUBKTNV-1">
          <mxGeometry x="110" y="550" width="270" height="104" as="geometry" />
        </mxCell>
        <mxCell id="E0N1HT8yoOOlsYQQrYLZ-63" value="- var : Var" style="text;strokeColor=none;fillColor=none;align=left;verticalAlign=top;spacingLeft=4;spacingRight=4;overflow=hidden;rotatable=0;points=[[0,0.5],[1,0.5]];portConstraint=eastwest;" vertex="1" parent="E0N1HT8yoOOlsYQQrYLZ-62">
          <mxGeometry y="26" width="270" height="26" as="geometry" />
        </mxCell>
        <mxCell id="E0N1HT8yoOOlsYQQrYLZ-68" value="- newType : Type" style="text;strokeColor=none;fillColor=none;align=left;verticalAlign=top;spacingLeft=4;spacingRight=4;overflow=hidden;rotatable=0;points=[[0,0.5],[1,0.5]];portConstraint=eastwest;" vertex="1" parent="E0N1HT8yoOOlsYQQrYLZ-62">
          <mxGeometry y="52" width="270" height="26" as="geometry" />
        </mxCell>
        <mxCell id="E0N1HT8yoOOlsYQQrYLZ-64" value="+ getAsm() : string" style="text;strokeColor=none;fillColor=none;align=left;verticalAlign=top;spacingLeft=4;spacingRight=4;overflow=hidden;rotatable=0;points=[[0,0.5],[1,0.5]];portConstraint=eastwest;" vertex="1" parent="E0N1HT8yoOOlsYQQrYLZ-62">
          <mxGeometry y="78" width="270" height="26" as="geometry" />
        </mxCell>
        <mxCell id="E0N1HT8yoOOlsYQQrYLZ-65" value="print" style="swimlane;fontStyle=0;childLayout=stackLayout;horizontal=1;startSize=26;fillColor=none;horizontalStack=0;resizeParent=1;resizeParentMax=0;resizeLast=0;collapsible=1;marginBottom=0;" vertex="1" parent="WIyWlLk6GJQsqaUBKTNV-1">
          <mxGeometry x="410" y="550" width="270" height="78" as="geometry" />
        </mxCell>
        <mxCell id="E0N1HT8yoOOlsYQQrYLZ-66" value="- vars : vector&lt;Var&gt;" style="text;strokeColor=none;fillColor=none;align=left;verticalAlign=top;spacingLeft=4;spacingRight=4;overflow=hidden;rotatable=0;points=[[0,0.5],[1,0.5]];portConstraint=eastwest;" vertex="1" parent="E0N1HT8yoOOlsYQQrYLZ-65">
          <mxGeometry y="26" width="270" height="26" as="geometry" />
        </mxCell>
        <mxCell id="E0N1HT8yoOOlsYQQrYLZ-67" value="+ getAsm() : string" style="text;strokeColor=none;fillColor=none;align=left;verticalAlign=top;spacingLeft=4;spacingRight=4;overflow=hidden;rotatable=0;points=[[0,0.5],[1,0.5]];portConstraint=eastwest;" vertex="1" parent="E0N1HT8yoOOlsYQQrYLZ-65">
          <mxGeometry y="52" width="270" height="26" as="geometry" />
        </mxCell>
        <mxCell id="E0N1HT8yoOOlsYQQrYLZ-71" value="Use" style="endArrow=open;endSize=12;dashed=1;html=1;rounded=0;exitX=0.5;exitY=0;exitDx=0;exitDy=0;" edge="1" parent="WIyWlLk6GJQsqaUBKTNV-1" source="AyQKdj8EUcUTwyNVggYh-0" target="AyQKdj8EUcUTwyNVggYh-11">
          <mxGeometry width="160" relative="1" as="geometry">
            <mxPoint x="2370" y="370" as="sourcePoint" />
            <mxPoint x="2530" y="370" as="targetPoint" />
            <Array as="points">
              <mxPoint x="2907" y="250" />
              <mxPoint x="1260" y="250" />
            </Array>
          </mxGeometry>
        </mxCell>
        <mxCell id="E0N1HT8yoOOlsYQQrYLZ-73" value="Use" style="endArrow=open;endSize=12;dashed=1;html=1;rounded=0;exitX=0.5;exitY=0;exitDx=0;exitDy=0;entryX=0.5;entryY=1;entryDx=0;entryDy=0;" edge="1" parent="WIyWlLk6GJQsqaUBKTNV-1" source="AyQKdj8EUcUTwyNVggYh-0" target="E0N1HT8yoOOlsYQQrYLZ-29">
          <mxGeometry width="160" relative="1" as="geometry">
            <mxPoint x="2380" y="310" as="sourcePoint" />
            <mxPoint x="2540" y="310" as="targetPoint" />
            <Array as="points">
              <mxPoint x="2907" y="200" />
              <mxPoint x="1794" y="200" />
            </Array>
          </mxGeometry>
        </mxCell>
        <mxCell id="E0N1HT8yoOOlsYQQrYLZ-74" value="Use" style="endArrow=open;endSize=12;dashed=1;html=1;rounded=0;exitX=0.5;exitY=0;exitDx=0;exitDy=0;" edge="1" parent="WIyWlLk6GJQsqaUBKTNV-1" source="9dWKjCrfehL0n8Pibzqj-0" target="AyQKdj8EUcUTwyNVggYh-12">
          <mxGeometry width="160" relative="1" as="geometry">
            <mxPoint x="2380" y="420" as="sourcePoint" />
            <mxPoint x="1510" y="240" as="targetPoint" />
            <Array as="points">
              <mxPoint x="2640" y="280" />
              <mxPoint x="1462" y="280" />
            </Array>
          </mxGeometry>
        </mxCell>
        <mxCell id="E0N1HT8yoOOlsYQQrYLZ-75" value="Use" style="endArrow=open;endSize=12;dashed=1;html=1;rounded=0;exitX=0.5;exitY=0;exitDx=0;exitDy=0;" edge="1" parent="WIyWlLk6GJQsqaUBKTNV-1" source="E0N1HT8yoOOlsYQQrYLZ-6" target="AyQKdj8EUcUTwyNVggYh-12">
          <mxGeometry width="160" relative="1" as="geometry">
            <mxPoint x="2290" y="450" as="sourcePoint" />
            <mxPoint x="1470" y="320" as="targetPoint" />
            <Array as="points">
              <mxPoint x="2340" y="320" />
              <mxPoint x="1460" y="320" />
            </Array>
          </mxGeometry>
        </mxCell>
        <mxCell id="E0N1HT8yoOOlsYQQrYLZ-76" value="Use" style="endArrow=open;endSize=12;dashed=1;html=1;rounded=0;exitX=0.5;exitY=0;exitDx=0;exitDy=0;" edge="1" parent="WIyWlLk6GJQsqaUBKTNV-1" source="AyQKdj8EUcUTwyNVggYh-0" target="AyQKdj8EUcUTwyNVggYh-12">
          <mxGeometry width="160" relative="1" as="geometry">
            <mxPoint x="2250" y="320" as="sourcePoint" />
            <mxPoint x="1570" y="200" as="targetPoint" />
            <Array as="points">
              <mxPoint x="2907" y="240" />
              <mxPoint x="1462" y="240" />
            </Array>
          </mxGeometry>
        </mxCell>
        <mxCell id="E0N1HT8yoOOlsYQQrYLZ-77" value="Use" style="endArrow=open;endSize=12;dashed=1;html=1;rounded=0;exitX=0.25;exitY=0;exitDx=0;exitDy=0;entryX=0;entryY=0;entryDx=0;entryDy=0;" edge="1" parent="WIyWlLk6GJQsqaUBKTNV-1" source="E0N1HT8yoOOlsYQQrYLZ-22" target="E0N1HT8yoOOlsYQQrYLZ-22">
          <mxGeometry width="160" relative="1" as="geometry">
            <mxPoint x="2130" y="370" as="sourcePoint" />
            <mxPoint x="1340" y="500" as="targetPoint" />
            <Array as="points">
              <mxPoint x="1375" y="520" />
              <mxPoint x="1307" y="520" />
            </Array>
          </mxGeometry>
        </mxCell>
        <mxCell id="E0N1HT8yoOOlsYQQrYLZ-78" value="Use" style="endArrow=open;endSize=12;dashed=1;html=1;rounded=0;exitX=0.25;exitY=0;exitDx=0;exitDy=0;entryX=0;entryY=0;entryDx=0;entryDy=0;" edge="1" parent="WIyWlLk6GJQsqaUBKTNV-1" source="E0N1HT8yoOOlsYQQrYLZ-6" target="E0N1HT8yoOOlsYQQrYLZ-6">
          <mxGeometry width="160" relative="1" as="geometry">
            <mxPoint x="2000" y="390" as="sourcePoint" />
            <mxPoint x="2230" y="510" as="targetPoint" />
            <Array as="points">
              <mxPoint x="2272" y="520" />
              <mxPoint x="2204" y="520" />
            </Array>
          </mxGeometry>
        </mxCell>
        <mxCell id="E0N1HT8yoOOlsYQQrYLZ-79" value="Use" style="endArrow=open;endSize=12;dashed=1;html=1;rounded=0;exitX=0.474;exitY=-0.011;exitDx=0;exitDy=0;exitPerimeter=0;" edge="1" parent="WIyWlLk6GJQsqaUBKTNV-1" source="E0N1HT8yoOOlsYQQrYLZ-17" target="AyQKdj8EUcUTwyNVggYh-12">
          <mxGeometry width="160" relative="1" as="geometry">
            <mxPoint x="2068" y="460" as="sourcePoint" />
            <mxPoint x="2228" y="460" as="targetPoint" />
            <Array as="points">
              <mxPoint x="1735" y="360" />
              <mxPoint x="1462" y="360" />
            </Array>
          </mxGeometry>
        </mxCell>
        <mxCell id="E0N1HT8yoOOlsYQQrYLZ-80" value="Use" style="endArrow=open;endSize=12;dashed=1;html=1;rounded=0;exitX=0.5;exitY=0;exitDx=0;exitDy=0;" edge="1" parent="WIyWlLk6GJQsqaUBKTNV-1" source="E0N1HT8yoOOlsYQQrYLZ-62" target="AyQKdj8EUcUTwyNVggYh-11">
          <mxGeometry width="160" relative="1" as="geometry">
            <mxPoint x="760" y="440" as="sourcePoint" />
            <mxPoint x="920" y="440" as="targetPoint" />
            <Array as="points">
              <mxPoint x="245" y="460" />
              <mxPoint x="1260" y="460" />
            </Array>
          </mxGeometry>
        </mxCell>
        <mxCell id="E0N1HT8yoOOlsYQQrYLZ-81" value="Use" style="endArrow=open;endSize=12;dashed=1;html=1;rounded=0;exitX=0.5;exitY=0;exitDx=0;exitDy=0;" edge="1" parent="WIyWlLk6GJQsqaUBKTNV-1" source="E0N1HT8yoOOlsYQQrYLZ-41" target="E0N1HT8yoOOlsYQQrYLZ-46">
          <mxGeometry width="160" relative="1" as="geometry">
            <mxPoint x="1260" y="400" as="sourcePoint" />
            <mxPoint x="1420" y="400" as="targetPoint" />
            <Array as="points">
              <mxPoint x="845" y="500" />
              <mxPoint x="1934" y="500" />
            </Array>
          </mxGeometry>
        </mxCell>
        <mxCell id="E0N1HT8yoOOlsYQQrYLZ-82" value="Use" style="endArrow=open;endSize=12;dashed=1;html=1;rounded=0;exitX=0.5;exitY=0;exitDx=0;exitDy=0;entryX=0.5;entryY=1;entryDx=0;entryDy=0;" edge="1" parent="WIyWlLk6GJQsqaUBKTNV-1" source="E0N1HT8yoOOlsYQQrYLZ-30" target="E0N1HT8yoOOlsYQQrYLZ-46">
          <mxGeometry width="160" relative="1" as="geometry">
            <mxPoint x="1130" y="460" as="sourcePoint" />
            <mxPoint x="1290" y="460" as="targetPoint" />
            <Array as="points">
              <mxPoint x="1142" y="480" />
              <mxPoint x="1934" y="480" />
            </Array>
          </mxGeometry>
        </mxCell>
        <mxCell id="E0N1HT8yoOOlsYQQrYLZ-83" value="Use" style="endArrow=open;endSize=12;dashed=1;html=1;rounded=0;exitX=0.5;exitY=0;exitDx=0;exitDy=0;" edge="1" parent="WIyWlLk6GJQsqaUBKTNV-1" source="E0N1HT8yoOOlsYQQrYLZ-65" target="AyQKdj8EUcUTwyNVggYh-11">
          <mxGeometry width="160" relative="1" as="geometry">
            <mxPoint x="1180" y="340" as="sourcePoint" />
            <mxPoint x="1340" y="340" as="targetPoint" />
            <Array as="points">
              <mxPoint x="545" y="520" />
              <mxPoint x="1260" y="520" />
            </Array>
          </mxGeometry>
        </mxCell>
        <mxCell id="E0N1HT8yoOOlsYQQrYLZ-84" value="Use" style="endArrow=open;endSize=12;dashed=1;html=1;rounded=0;exitX=0.5;exitY=0;exitDx=0;exitDy=0;" edge="1" parent="WIyWlLk6GJQsqaUBKTNV-1" source="E0N1HT8yoOOlsYQQrYLZ-30" target="AyQKdj8EUcUTwyNVggYh-11">
          <mxGeometry width="160" relative="1" as="geometry">
            <mxPoint x="1140" y="540" as="sourcePoint" />
            <mxPoint x="1167" y="420" as="targetPoint" />
            <Array as="points">
              <mxPoint x="1140" y="240" />
              <mxPoint x="1260" y="240" />
            </Array>
          </mxGeometry>
        </mxCell>
        <mxCell id="E0N1HT8yoOOlsYQQrYLZ-86" value="Use" style="endArrow=open;endSize=12;dashed=1;html=1;rounded=0;exitX=0.5;exitY=0;exitDx=0;exitDy=0;" edge="1" parent="WIyWlLk6GJQsqaUBKTNV-1" source="E0N1HT8yoOOlsYQQrYLZ-62" target="E0N1HT8yoOOlsYQQrYLZ-29">
          <mxGeometry width="160" relative="1" as="geometry">
            <mxPoint x="510" y="370" as="sourcePoint" />
            <mxPoint x="670" y="370" as="targetPoint" />
            <Array as="points">
              <mxPoint x="245" y="360" />
              <mxPoint x="1794" y="360" />
            </Array>
          </mxGeometry>
        </mxCell>
      </root>
    </mxGraphModel>
  </diagram>
</mxfile>
